# xmcd
#
# Track frame offsets:
#	150
#	18675
#	38072
#	62597
#	86412
#	104077
#	120080
#	140002
#	160250
#	178815
#	198197
#	222695
#	246422
#	264087
#	280057
#	299972
#	331707
#
# Disc length: 4435 seconds
#
# Revision: 2
# Processed by: cddbd v1.5.2PL0 Copyright (c) Steve Scherf et al.
# Submitted via: audiograbber 1.83.01
#
DISCID=03115111
DTITLE=Various Artist - Disc A058 Sound Choice Star Series Hits Of The Little River Ba
DTITLE=nd Volume 1 SC2272
DYEAR=1998
DGENRE=Karaoke
TTITLE0=The Little River Band - Take It Easy On Me (SC)
TTITLE1=The Little River Band - Lonesome Loser (SC)
TTITLE2=The Little River Band - Cool Change (SC)
TTITLE3=The Little River Band - Lady (SC)
TTITLE4=The Little River Band - Reminiscing (SC)
TTITLE5=The Little River Band - The Other Guy (SC)
TTITLE6=The Little River Band - Help Is On Its Way (SC)
TTITLE7=The Little River Band - Happy Anniversary (SC)
TTITLE8=The Little River Band - Take It Easy On Me (SC) (GV)
TTITLE9=The Little River Band - Lonesome Loser (SC) (GV)
TTITLE10=The Little River Band - Cool Change (SC) (GV)
TTITLE11=The Little River Band - Lady (SC) (GV)
TTITLE12=The Little River Band - Reminiscing (SC) (GV)
TTITLE13=The Little River Band - The Other Guy (SC) (GV)
TTITLE14=The Little River Band - Help Is On Its Way (SC) (GV)
TTITLE15=The Little River Band - Happy Anniversary (SC) (GV)
TTITLE16=Data Track - Data Track
EXTD=
EXTT0=
EXTT1=
EXTT2=
EXTT3=
EXTT4=
EXTT5=
EXTT6=
EXTT7=
EXTT8=
EXTT9=
EXTT10=
EXTT11=
EXTT12=
EXTT13=
EXTT14=
EXTT15=
EXTT16=
PLAYORDER=
